<svg width="28" height="22" viewBox="0 0 28 22" fill="none" xmlns="http://www.w3.org/2000/svg">
<path d="M23.3327 0.333496H4.66602C3.60515 0.333496 2.58773 0.754924 1.83759 1.50507C1.08744 2.25521 0.666016 3.27263 0.666016 4.3335V17.6668C0.666016 18.7277 1.08744 19.7451 1.83759 20.4953C2.58773 21.2454 3.60515 21.6668 4.66602 21.6668H23.3327C24.3935 21.6668 25.411 21.2454 26.1611 20.4953C26.9113 19.7451 27.3327 18.7277 27.3327 17.6668V4.3335C27.3327 3.27263 26.9113 2.25521 26.1611 1.50507C25.411 0.754924 24.3935 0.333496 23.3327 0.333496ZM22.4393 3.00016L13.9993 9.3335L5.55935 3.00016H22.4393ZM23.3327 19.0002H4.66602C4.31239 19.0002 3.97326 18.8597 3.72321 18.6096C3.47316 18.3596 3.33268 18.0205 3.33268 17.6668V4.66683L13.1993 12.0668C13.4301 12.2399 13.7109 12.3335 13.9993 12.3335C14.2878 12.3335 14.5686 12.2399 14.7993 12.0668L24.666 4.66683V17.6668C24.666 18.0205 24.5255 18.3596 24.2755 18.6096C24.0254 18.8597 23.6863 19.0002 23.3327 19.0002Z" fill="#1C5190"/>
</svg>
