<svg width="28" height="28" viewBox="0 0 28 28" fill="none" xmlns="http://www.w3.org/2000/svg">
<path d="M23.3991 4.54658C22.1765 3.31205 20.7205 2.3332 19.1158 1.66706C17.5111 1.00092 15.7899 0.66082 14.0524 0.666576C6.77242 0.666576 0.839089 6.59991 0.839089 13.8799C0.839089 16.2132 1.45242 18.4799 2.59909 20.4799L0.732422 27.3332L7.73242 25.4932C9.66575 26.5466 11.8391 27.1066 14.0524 27.1066C21.3324 27.1066 27.2658 21.1732 27.2658 13.8932C27.2658 10.3599 25.8924 7.03991 23.3991 4.54658ZM14.0524 24.8666C12.0791 24.8666 10.1458 24.3332 8.45242 23.3332L8.05242 23.0932L3.89242 24.1866L4.99909 20.1332L4.73242 19.7199C3.63582 17.9693 3.05365 15.9456 3.05242 13.8799C3.05242 7.82658 7.98575 2.89324 14.0391 2.89324C16.9724 2.89324 19.7324 4.03991 21.7991 6.11991C22.8226 7.13839 23.6336 8.34997 24.1853 9.68435C24.7369 11.0187 25.018 12.4494 25.0124 13.8932C25.0391 19.9466 20.1058 24.8666 14.0524 24.8666ZM20.0791 16.6532C19.7458 16.4932 18.1191 15.6932 17.8258 15.5732C17.5191 15.4666 17.3058 15.4132 17.0791 15.7332C16.8524 16.0666 16.2258 16.8132 16.0391 17.0266C15.8524 17.2532 15.6524 17.2799 15.3191 17.1066C14.9858 16.9466 13.9191 16.5866 12.6658 15.4666C11.6791 14.5866 11.0258 13.5066 10.8258 13.1732C10.6391 12.8399 10.7991 12.6666 10.9724 12.4932C11.1191 12.3466 11.3058 12.1066 11.4658 11.9199C11.6258 11.7332 11.6924 11.5866 11.7991 11.3732C11.9058 11.1466 11.8524 10.9599 11.7724 10.7999C11.6924 10.6399 11.0258 9.01324 10.7591 8.34658C10.4924 7.70658 10.2124 7.78658 10.0124 7.77324H9.37242C9.14575 7.77324 8.79909 7.85324 8.49242 8.18658C8.19909 8.51991 7.34576 9.31991 7.34576 10.9466C7.34576 12.5732 8.53242 14.1466 8.69242 14.3599C8.85242 14.5866 11.0258 17.9199 14.3324 19.3466C15.1191 19.6932 15.7324 19.8932 16.2124 20.0399C16.9991 20.2932 17.7191 20.2532 18.2924 20.1732C18.9324 20.0799 20.2524 19.3732 20.5191 18.5999C20.7991 17.8266 20.7991 17.1732 20.7058 17.0266C20.6124 16.8799 20.4124 16.8132 20.0791 16.6532Z" fill="#1C5190"/>
</svg>
